<?xml version="1.0" encoding="utf-8"?>
<!-- Generator: Adobe Illustrator 26.0.3, SVG Export Plug-In . SVG Version: 6.00 Build 0)  -->
<svg version="1.1" id="Layer_1" xmlns="http://www.w3.org/2000/svg" xmlns:xlink="http://www.w3.org/1999/xlink" x="0px" y="0px"
	 viewBox="0 0 50 50" style="enable-background:new 0 0 50 50;" xml:space="preserve">
<style type="text/css">
	.st0{fill:#3B3B3B;stroke:#000000;stroke-width:3;stroke-linejoin:round;}
	.st1{fill:#383838;stroke:#000000;stroke-width:3;stroke-linejoin:round;}
	.st2{fill:#FFFFFF;stroke:#000000;stroke-width:3;stroke-linejoin:round;}
	.st3{fill:#ABABAB;stroke:#000000;stroke-width:3;stroke-linejoin:round;}
	.st4{fill:#B3FCFF;stroke:#000000;stroke-width:3;stroke-linejoin:round;}
	.st5{fill:none;stroke:#000000;stroke-width:2;stroke-linecap:round;stroke-linejoin:round;}
</style>
<path class="st0" d="M6.7,9.6h36.6c1.7,0,3,1.4,3,3V37c0,1.7-1.4,3-3,3H6.7c-1.7,0-3.1-1.4-3.1-3V12.6C3.6,10.9,5,9.6,6.7,9.6z"/>
<path class="st1" d="M10.9,6.1h2.7c0.8,0,1.5,0.7,1.5,1.5V8c0,0.8-0.7,1.5-1.5,1.5h-2.7c-0.8,0-1.5-0.7-1.5-1.5V7.7
	C9.4,6.8,10.1,6.1,10.9,6.1z"/>
<rect x="36.2" y="15.4" class="st2" width="6.1" height="3.4"/>
<path class="st3" d="M5.9,32.1h38.1c1.3,0,2.3,1,2.3,2.3v3.4c0,1.3-1,2.3-2.3,2.3H5.9c-1.3,0-2.3-1-2.3-2.3v-3.4
	C3.6,33.1,4.7,32.1,5.9,32.1z"/>
<ellipse class="st4" cx="25" cy="25.8" rx="8.6" ry="8.7"/>
<path class="st5" d="M25,20.6c-3,0.4-4.7,3.4-4.8,5.3"/>
</svg>
